<?xml version="1.0" encoding="UTF-8"?>
<svg id="Capa_1" data-name="Capa 1" xmlns="http://www.w3.org/2000/svg" version="1.1" viewBox="0 0 274.88 76.81">
  <defs>
    <style>
      .cls-1 {
        fill: #f3f5f0;
        stroke-width: 0px;
      }
    </style>
  </defs>
  <path class="cls-1" d="M8.36,17.73h13.67l-.34,2.87c3.04-2.45,6.75-3.88,10.8-3.88,12.92,0,21.02,10.47,19.08,24.23-1.77,12.58-11.14,20.85-22.12,20.85-5.57,0-9.88-1.77-12.92-4.9l-2.87,19.92H0L8.36,17.73ZM37.48,40.01c.84-5.82-2.87-10.04-8.69-10.04-4.81,0-8.95,3.63-9.62,8.61-.68,5.74,2.87,9.96,8.53,9.96,4.98,0,9.2-3.63,9.79-8.53Z"/>
  <path class="cls-1" d="M62.04,28.11c-2.19-2.11-3.38-5.06-2.87-8.36.59-4.64,4.3-7.77,9.29-7.77s8.27,2.95,8.53,7.01l25.58,3.04-.51,3.21c-5.32,6.25-8.44,11.56-9.03,16.21-.59,3.97,1.18,6.08,5.32,6.08h1.86l-1.86,13.25h-3.12c-12.66,0-18.32-7.09-16.46-18.82.42-3.04,1.44-5.99,3.12-8.95l-7.93-1.1-9.54,28.87h-13.42l11.06-32.67Z"/>
  <path class="cls-1" d="M104.08,37.56c1.69-12.58,12.32-20.85,24.73-20.85,14.43,0,23.72,10.47,21.86,24.23-1.77,12.58-12.41,20.85-24.82,20.85-14.43,0-23.72-10.47-21.78-24.23ZM136.58,40.01c.76-5.74-2.87-10.04-8.69-10.04-4.9,0-9.03,3.63-9.79,8.53-.76,5.74,2.95,10.04,8.69,10.04,4.98,0,9.12-3.63,9.79-8.53Z"/>
  <path class="cls-1" d="M154.98,37.56c1.77-12.58,11.23-20.85,22.12-20.85,5.57,0,9.88,1.86,12.92,4.98l3.04-21.69h13.67l-6.16,44.32c-.34,2.19.59,3.21,2.7,3.21h.93l-1.94,13.25h-3.71c-5.74,0-9.45-1.69-11.23-5.06-3.55,3.8-8.1,6.08-13.25,6.08-12.91,0-21.02-10.47-19.08-24.23ZM187.4,40.01l.08-.08c.76-5.82-2.87-9.96-8.69-9.96-4.9,0-9.12,3.63-9.71,8.53-.84,5.82,2.87,10.04,8.69,10.04,4.81,0,9.03-3.71,9.62-8.53Z"/>
  <path class="cls-1" d="M209.09,37.56c1.77-12.66,12.32-20.85,24.73-20.85,14.43,0,23.8,9.62,21.78,22.88-.17,1.27-.42,2.7-.84,3.8h-31.57c.84,4.3,4.05,6.92,8.78,6.92,3.38,0,5.99-1.52,7.6-3.38h14.43c-3.46,8.86-11.99,14.86-23.13,14.86-14.43,0-23.72-10.47-21.78-24.23ZM224.03,34.95h17.64c-.68-4.14-3.8-6.75-8.27-6.75-4.14,0-7.6,2.62-9.37,6.75Z"/>
  <path class="cls-1" d="M256.11,51.58c.76-4.81,4.9-8.36,9.71-8.36,5.91,0,9.79,4.39,8.95,10.21-.68,4.64-4.9,8.27-9.71,8.27-5.82,0-9.79-4.39-8.95-10.13Z"/>
</svg>