<?xml version="1.0" encoding="UTF-8"?>
<svg id="Capa_1" data-name="Capa 1" xmlns="http://www.w3.org/2000/svg" version="1.1" viewBox="0 0 198.59 204.12">
  <defs>
    <style>
      .cls-1 {
        fill: #c8ff00;
        stroke-width: 0px;
      }
    </style>
  </defs>
  <path class="cls-1" d="M170.25,74.76c-7.28,31.07-36.15,53.19-69.45,53.19h-33.79c-4.44,0-8.22,3.25-8.88,7.64l-8.48,60.88c-.65,4.39-4.43,7.65-8.87,7.65H8.98c-5.47,0-9.66-4.85-8.89-10.25L26.31,7.69c.63-4.42,4.42-7.69,8.88-7.69h39.4l-2.4,10.87-15.89,4.35c-3.63,1-6.47,3.82-7.5,7.44-.49,1.76-.68,3.57-.57,5.36.06.93.21,1.86.43,2.77l-4.81.3c-1.19.07-2.22,1-2.27,2.19-.05,1.38,1.09,2.46,2.42,2.37l6.5-.41c.22.36.44.71.69,1.06,1.08,1.48,2.32,3.2,3.69,5.09l-5.66.36c-1.19.07-2.22.99-2.27,2.19-.05,1.37,1.09,2.45,2.42,2.37l8.71-.56c6.36,8.65,14.72,19.75,23.27,30.42l-6.03.38c-1.2.08-2.22,1-2.27,2.2-.05,1.37,1.09,2.45,2.42,2.37l9.4-.6c1.53,1.88,3.06,3.75,4.59,5.56l-6.29.39c-1.19.08-2.22,1-2.27,2.2-.05,1.37,1.09,2.45,2.42,2.37l9.83-.63c1.66,1.92,3.3,3.78,4.89,5.54l-7.03.44c-1.19.08-2.22,1-2.27,2.19-.05,1.38,1.09,2.46,2.42,2.37l10.9-.68c5.72,5.96,10.69,10.3,14.13,11.75,12.66,5.36,11.87-5.95,10.74-11.74-.34-1.72-.91-3.38-1.69-4.95-2.01-4.07-6.85-14.43-9.92-25.93l-10.8-1.14,9.58-3.96c-1.9-9.03-2.34-18.28.76-25.4,8.73-20.07-12.1-9.2-12.76-8.87L111.8.07c15.51.63,28.91,5.55,39.1,13.63-10.34,5.44-17.38,16.3-17.38,28.8,0,17.96,14.57,32.53,32.54,32.53,1.42,0,2.82-.09,4.19-.27Z"/>
  <path class="cls-1" d="M198.59,42.5c0,16.54-12.35,30.2-28.34,32.26.42-1.82.78-3.67,1.06-5.56,3.38-23.22-4.74-43.09-20.4-55.5,4.52-2.39,9.68-3.75,15.16-3.75,17.96,0,32.53,14.57,32.53,32.54Z"/>
</svg>